<svg width="61" height="61" viewBox="0 0 61 61" fill="none" xmlns="http://www.w3.org/2000/svg">
<path fill-rule="evenodd" clip-rule="evenodd" d="M52.3828 17.6602C52.3828 18.6957 51.5433 19.5352 50.5078 19.5352H10.5078C9.47229 19.5352 8.63281 18.6957 8.63281 17.6602C8.63281 16.6246 9.47229 15.7852 10.5078 15.7852H50.5078C51.5433 15.7852 52.3828 16.6246 52.3828 17.6602Z" fill="#1C274C"/>
<path fill-rule="evenodd" clip-rule="evenodd" d="M52.3828 30.1602C52.3828 31.1957 51.5433 32.0352 50.5078 32.0352H10.5078C9.47229 32.0352 8.63281 31.1957 8.63281 30.1602C8.63281 29.1247 9.47229 28.2852 10.5078 28.2852H50.5078C51.5433 28.2852 52.3828 29.1247 52.3828 30.1602Z" fill="#1C274C"/>
<path fill-rule="evenodd" clip-rule="evenodd" d="M52.3828 42.6602C52.3828 43.6957 51.5433 44.5352 50.5078 44.5352H10.5078C9.47229 44.5352 8.63281 43.6957 8.63281 42.6602C8.63281 41.6247 9.47229 40.7852 10.5078 40.7852H50.5078C51.5433 40.7852 52.3828 41.6247 52.3828 42.6602Z" fill="#1C274C"/>
</svg>
